<svg xmlns="http://www.w3.org/2000/svg" xmlns:xlink="http://www.w3.org/1999/xlink" width="755" zoomAndPan="magnify" viewBox="0 0 567 226.499993" height="302" preserveAspectRatio="xMidYMid meet" version="1.0"><defs><g/><clipPath id="76c78dd183"><path d="M 55 7 L 239.625 7 L 239.625 181 L 55 181 Z M 55 7 " clip-rule="nonzero"/></clipPath><clipPath id="ea3c6a8a71"><path d="M 12.125 21 L 211 21 L 211 219.78125 L 12.125 219.78125 Z M 12.125 21 " clip-rule="nonzero"/></clipPath></defs><g clip-path="url(#76c78dd183)"><path fill="#ffffff" d="M 55.902344 106.921875 C 56.148438 104.105469 57.324219 101.613281 59.058594 99.339844 C 65.152344 91.332031 78.820312 87.660156 88.382812 93.566406 C 94.015625 97.046875 98.53125 101.527344 102.292969 106.824219 C 105.414062 111.226562 108.234375 115.84375 111.273438 120.492188 C 113.390625 117.484375 115.53125 114.394531 117.722656 111.34375 C 136.558594 85.136719 157.242188 60.535156 181.230469 38.84375 C 195.945312 25.542969 212.832031 15.660156 231 7.847656 C 234.140625 6.492188 236.757812 7.019531 239.449219 9.738281 C 238.21875 10.890625 236.992188 12.027344 235.773438 13.175781 C 219.90625 28.144531 204.382812 43.464844 190.289062 60.121094 C 182.226562 69.648438 174.75 79.671875 167.054688 89.507812 C 151.5625 109.324219 139.972656 131.609375 126.804688 152.902344 C 121.722656 161.121094 116.6875 169.375 111.597656 177.589844 C 109.574219 180.855469 106.914062 180.808594 104.882812 177.472656 C 98.296875 166.640625 93.105469 155.132812 88.199219 143.472656 C 84.101562 133.738281 79.5 124.242188 73.65625 115.394531 C 70.761719 111.023438 67.355469 107.425781 61.753906 106.945312 C 59.863281 106.789062 57.941406 106.921875 55.902344 106.921875 Z M 55.902344 106.921875 " fill-opacity="1" fill-rule="nonzero"/></g><g clip-path="url(#ea3c6a8a71)"><path fill="#ffffff" d="M 198.371094 73.023438 L 182.941406 88.445312 C 187.398438 98.28125 189.871094 109.195312 189.871094 120.695312 C 189.871094 163.996094 154.75 199.089844 111.417969 199.089844 C 68.082031 199.089844 32.960938 163.996094 32.960938 120.695312 C 32.960938 77.394531 68.082031 42.300781 111.417969 42.300781 C 122.25 42.300781 132.5625 44.496094 141.945312 48.460938 L 157.488281 32.925781 C 143.726562 25.691406 128.042969 21.601562 111.417969 21.601562 C 56.648438 21.601562 12.25 65.96875 12.25 120.695312 C 12.25 175.421875 56.648438 219.78125 111.417969 219.78125 C 166.183594 219.78125 210.582031 175.417969 210.582031 120.691406 C 210.582031 103.414062 206.15625 87.164062 198.371094 73.023438 Z M 198.371094 73.023438 " fill-opacity="1" fill-rule="nonzero"/></g><g fill="#ffffff" fill-opacity="1"><g transform="translate(219.252974, 147.782504)"><g><path d="M 41.011719 0 C 43.332031 0 45.128906 -1.703125 45.128906 -4.167969 C 45.128906 -6.488281 43.332031 -8.335938 41.011719 -8.335938 L 14.679688 -8.335938 L 14.679688 -27.703125 L 33.859375 -27.703125 C 36.273438 -27.703125 38.027344 -29.457031 38.027344 -31.777344 C 38.027344 -34.097656 36.273438 -35.894531 33.859375 -35.894531 L 14.679688 -35.894531 L 14.679688 -54.082031 L 41.011719 -54.082031 C 43.332031 -54.082031 45.128906 -55.929688 45.128906 -58.34375 C 45.128906 -60.664062 43.332031 -62.511719 41.011719 -62.511719 L 10.511719 -62.511719 C 8.191406 -62.511719 6.296875 -60.664062 6.296875 -58.34375 L 6.296875 -4.214844 C 6.296875 -1.941406 7.910156 -0.1875 10.183594 0 Z M 41.011719 0 "/></g></g></g><g fill="#ffffff" fill-opacity="1"><g transform="translate(262.62147, 147.782504)"><g><path d="M 35.753906 -23.347656 C 36.9375 -23.347656 37.933594 -23.773438 38.832031 -24.578125 C 39.636719 -25.382812 40.0625 -26.378906 40.0625 -27.515625 C 40.0625 -28.652344 39.636719 -29.644531 38.832031 -30.546875 C 37.933594 -31.398438 36.890625 -31.824219 35.753906 -31.824219 L 7.480469 -31.824219 C 5.066406 -31.824219 3.21875 -29.929688 3.21875 -27.515625 C 3.21875 -26.378906 3.644531 -25.382812 4.453125 -24.578125 C 5.257812 -23.773438 6.296875 -23.347656 7.480469 -23.347656 Z M 35.753906 -23.347656 "/></g></g></g><g fill="#ffffff" fill-opacity="1"><g transform="translate(302.86431, 147.782504)"><g><path d="M 28.222656 0.566406 C 29.789062 0.566406 31.253906 -0.238281 32.011719 -1.703125 L 32.203125 -2.082031 L 32.34375 -2.414062 L 54.175781 -56.6875 C 54.414062 -57.113281 54.507812 -57.679688 54.507812 -58.296875 C 54.507812 -59.289062 54.128906 -60.378906 53.417969 -61.183594 C 52.566406 -62.039062 51.570312 -62.464844 50.386719 -62.464844 C 48.683594 -62.464844 47.261719 -61.5625 46.550781 -59.90625 L 28.367188 -14.632812 L 10.183594 -59.90625 C 9.472656 -61.5625 7.957031 -62.414062 6.25 -62.414062 C 5.019531 -62.414062 4.023438 -61.988281 3.21875 -61.136719 C 2.460938 -60.378906 2.035156 -59.335938 2.035156 -58.34375 C 2.035156 -57.917969 2.179688 -57.347656 2.414062 -56.6875 L 24.4375 -1.988281 C 25.144531 -0.332031 26.519531 0.566406 28.222656 0.566406 Z M 28.222656 0.566406 "/></g></g></g><g fill="#ffffff" fill-opacity="1"><g transform="translate(355.574606, 147.782504)"><g><path d="M 25.195312 0.566406 C 31.492188 0.566406 37.363281 -1.988281 41.578125 -6.203125 C 45.792969 -10.417969 48.304688 -16.242188 48.304688 -22.542969 C 48.304688 -28.839844 45.792969 -34.617188 41.578125 -38.925781 C 37.363281 -43.140625 31.492188 -45.699219 25.195312 -45.699219 C 18.941406 -45.699219 13.210938 -43.238281 8.902344 -38.925781 C 4.59375 -34.617188 2.082031 -28.792969 2.082031 -22.542969 C 2.082031 -16.289062 4.59375 -10.417969 8.902344 -6.203125 C 13.210938 -1.894531 18.941406 0.566406 25.195312 0.566406 Z M 25.195312 -7.8125 C 21.167969 -7.8125 17.472656 -9.375 14.773438 -12.171875 C 12.074219 -14.871094 10.464844 -18.5625 10.464844 -22.542969 C 10.464844 -26.519531 12.074219 -30.214844 14.773438 -32.914062 C 17.472656 -35.613281 21.167969 -37.222656 25.195312 -37.222656 C 29.3125 -37.222656 32.960938 -35.613281 35.660156 -32.914062 C 38.359375 -30.214844 39.921875 -26.519531 39.921875 -22.542969 C 39.921875 -18.5625 38.359375 -14.871094 35.660156 -12.171875 C 32.960938 -9.375 29.3125 -7.8125 25.195312 -7.8125 Z M 25.195312 -7.8125 "/></g></g></g><g fill="#ffffff" fill-opacity="1"><g transform="translate(402.081316, 147.782504)"><g><path d="M 27.417969 0.566406 C 33.386719 0.566406 38.359375 -1.324219 42.335938 -5.113281 C 43.285156 -6.0625 43.851562 -7.433594 43.851562 -8.714844 C 43.851562 -9.804688 43.472656 -10.75 42.714844 -11.507812 C 41.910156 -12.21875 41.058594 -12.597656 40.0625 -12.597656 C 38.972656 -12.597656 37.886719 -12.125 36.890625 -11.175781 C 34.429688 -8.902344 31.253906 -7.765625 27.417969 -7.765625 C 23.394531 -7.765625 19.699219 -9.28125 17.046875 -11.933594 C 14.347656 -14.585938 12.785156 -18.183594 12.785156 -22.164062 L 12.785156 -37.601562 L 31.585938 -37.601562 C 34.003906 -37.601562 35.800781 -39.351562 35.800781 -41.625 C 35.800781 -43.945312 33.90625 -45.886719 31.585938 -45.886719 L 12.785156 -45.886719 L 12.785156 -55.171875 C 12.785156 -56.355469 12.359375 -57.347656 11.507812 -58.203125 C 10.703125 -58.957031 9.566406 -59.433594 8.429688 -59.433594 C 7.292969 -59.433594 6.296875 -59.007812 5.492188 -58.203125 C 4.640625 -57.347656 4.214844 -56.355469 4.214844 -55.171875 L 4.214844 -22.257812 C 4.214844 -15.960938 6.726562 -10.230469 11.035156 -6.015625 C 15.25 -1.847656 21.027344 0.566406 27.417969 0.566406 Z M 27.417969 0.566406 "/></g></g></g><g fill="#ffffff" fill-opacity="1"><g transform="translate(443.142147, 147.782504)"><g><path d="M 9.09375 -51.289062 C 10.324219 -51.289062 11.460938 -51.761719 12.453125 -52.707031 C 13.402344 -53.609375 13.875 -54.695312 13.875 -56.023438 C 13.875 -57.394531 13.402344 -58.484375 12.453125 -59.386719 C 11.460938 -60.285156 10.371094 -60.757812 9.09375 -60.757812 C 7.765625 -60.757812 6.628906 -60.285156 5.730469 -59.386719 C 4.78125 -58.4375 4.308594 -57.300781 4.308594 -56.023438 C 4.308594 -54.746094 4.78125 -53.65625 5.730469 -52.707031 C 6.675781 -51.761719 7.8125 -51.289062 9.09375 -51.289062 Z M 9.09375 0.332031 C 11.367188 0.332031 13.210938 -1.515625 13.210938 -3.835938 L 13.210938 -41.484375 C 13.210938 -43.804688 11.414062 -45.699219 9.140625 -45.699219 C 7.957031 -45.699219 6.914062 -45.273438 6.109375 -44.46875 C 5.257812 -43.664062 4.832031 -42.667969 4.832031 -41.484375 L 4.832031 -3.835938 C 4.832031 -1.515625 6.773438 0.332031 9.09375 0.332031 Z M 9.09375 0.332031 "/></g></g></g><g fill="#ffffff" fill-opacity="1"><g transform="translate(457.399733, 147.782504)"><g><path d="M 7.578125 0 C 9.898438 0 11.648438 -1.703125 11.648438 -4.121094 L 11.648438 -23.394531 C 11.648438 -27.183594 13.023438 -30.734375 15.484375 -33.246094 C 17.949219 -35.847656 21.261719 -37.269531 25.050781 -37.269531 C 28.792969 -37.269531 32.203125 -35.753906 34.710938 -33.148438 C 37.175781 -30.640625 38.59375 -27.089844 38.644531 -23.300781 L 38.644531 -4.121094 C 38.644531 -1.703125 40.539062 0 42.859375 0 C 45.179688 0 46.976562 -1.703125 46.976562 -4.121094 L 46.976562 -23.394531 C 46.976562 -29.457031 44.65625 -35.042969 40.679688 -39.164062 C 36.558594 -43.285156 31.113281 -45.699219 25.050781 -45.699219 C 19.039062 -45.699219 13.589844 -43.285156 9.566406 -39.164062 C 5.589844 -35.042969 3.269531 -29.457031 3.269531 -23.394531 L 3.269531 -4.121094 C 3.269531 -2.9375 3.695312 -1.988281 4.59375 -1.183594 C 5.398438 -0.378906 6.394531 0 7.578125 0 Z M 7.578125 0 "/></g></g></g><g fill="#ffffff" fill-opacity="1"><g transform="translate(505.042976, 147.782504)"><g><path d="M 14.726562 20.695312 C 15.722656 20.695312 16.527344 20.363281 17.238281 19.699219 C 19.085938 18.328125 21.308594 17.664062 23.960938 17.664062 C 25.050781 17.664062 26.332031 17.757812 27.75 17.902344 C 29.03125 18.089844 30.261719 18.183594 31.445312 18.183594 C 35.800781 18.183594 39.921875 16.71875 42.953125 13.875 C 46.171875 10.890625 48.019531 6.628906 48.019531 1.324219 C 48.019531 -3.269531 46.789062 -6.914062 44.324219 -9.566406 C 46.976562 -13.589844 48.304688 -17.902344 48.304688 -22.542969 C 48.304688 -28.839844 45.792969 -34.617188 41.578125 -38.925781 C 37.363281 -43.140625 31.492188 -45.699219 25.195312 -45.699219 C 18.941406 -45.699219 13.210938 -43.238281 8.902344 -38.925781 C 4.59375 -34.617188 2.082031 -28.792969 2.082031 -22.542969 C 2.082031 -16.289062 4.59375 -10.417969 8.902344 -6.203125 C 13.210938 -1.894531 18.941406 0.566406 25.195312 0.566406 C 30.023438 0.566406 34.382812 -0.804688 38.265625 -3.503906 L 38.785156 -2.699219 C 39.023438 -2.367188 39.164062 -2.035156 39.304688 -1.703125 C 39.636719 -0.851562 39.78125 0.1875 39.78125 1.421875 C 39.78125 7.054688 36.039062 9.851562 28.554688 9.851562 C 27.515625 9.851562 26.757812 9.851562 26.28125 9.804688 L 24.105469 9.804688 C 21.59375 9.804688 20.078125 9.898438 18.230469 10.324219 C 15.910156 10.9375 14.113281 11.695312 12.738281 12.597656 C 11.128906 13.6875 10.324219 14.964844 10.324219 16.433594 C 10.324219 17.523438 10.890625 18.660156 11.695312 19.417969 C 12.550781 20.269531 13.542969 20.695312 14.726562 20.695312 Z M 25.195312 -7.8125 C 21.167969 -7.8125 17.472656 -9.375 14.773438 -12.171875 C 12.074219 -14.871094 10.464844 -18.5625 10.464844 -22.542969 C 10.464844 -26.519531 12.074219 -30.214844 14.773438 -32.914062 C 17.472656 -35.613281 21.167969 -37.222656 25.195312 -37.222656 C 29.3125 -37.222656 33.007812 -35.613281 35.707031 -32.914062 C 38.40625 -30.214844 39.96875 -26.519531 39.96875 -22.542969 C 39.96875 -18.5625 38.40625 -14.871094 35.707031 -12.171875 C 33.007812 -9.375 29.3125 -7.8125 25.195312 -7.8125 Z M 25.195312 -7.8125 "/></g></g></g></svg>
