<svg xmlns="http://www.w3.org/2000/svg" xml:space="preserve" width="850px" height="850px" version="1.1" style="shape-rendering:geometricPrecision; text-rendering:geometricPrecision; image-rendering:optimizeQuality; fill-rule:evenodd; clip-rule:evenodd" viewBox="0 0 850 850" xmlns:xlink="http://www.w3.org/1999/xlink">
<defs>
<style type="text/css">
   
    .fil0 {fill:#FF4800}
    .fil1 {fill:white}
   
  </style>
</defs>
<g id="Layer_x0020_1">
<metadata id="CorelCorpID_0Corel-Layer"></metadata>
<circle class="fil0" cx="425" cy="425" r="425" id="id_101" style="fill: rgb(10, 122, 111);"></circle>
<g id="_485662144">
<path class="fil1" d="M329 275l25 25 59 -60c2,-1 4,-2 5,-2 3,0 4,1 6,2l22 23c1,1 2,3 2,5 0,2 -1,4 -2,5l-87 87c-1,1 -3,2 -5,2 -2,0 -4,-1 -5,-2l-52 -52c-4,-3 -4,-8 0,-11l21 -22c3,-3 8,-3 11,0zm-50 25c0,15 4,30 10,42 2,2 3,4 3,6 17,26 46,44 79,44 51,0 92,-42 92,-92 0,-51 -41,-92 -92,-92 -51,0 -92,41 -92,92z" id="id_102"></path>
<path class="fil1" d="M359 315c-1,2 -3,3 -5,3 -2,0 -4,-1 -5,-3l-25 -24 -12 11 42 41 76 -76 -12 -11 -59 59z" id="id_103"></path>
<path class="fil1" d="M672 642l-44 0 0 -51c0,-6 -4,-10 -9,-10 -5,0 -9,4 -9,10l0 51 -153 0 0 -51c0,-6 -4,-10 -10,-10 -5,0 -9,4 -9,10l0 51 -44 0c-5,0 -9,-4 -9,-10l0 -38c0,-54 44,-98 98,-98 1,0 3,1 4,1 -3,-1 -7,-1 -10,2 -3,3 -4,9 0,13l51 54c2,2 4,3 7,3 2,0 5,-1 6,-3l52 -54c3,-4 3,-10 0,-13 -1,-1 -3,-2 -4,-2 52,3 92,46 92,98l0 38c0,5 -4,9 -9,9zm-93 -142c1,0 1,-1 1,-1l0 0 -1 1z" id="id_104"></path>
<path class="fil1" d="M587 541c-6,0 -10,-4 -10,-10l0 -69c0,-5 4,-10 10,-10 5,0 9,5 9,10l0 70c-1,5 -5,9 -9,9z" id="id_105"></path>
<path class="fil1" d="M484 539c-6,0 -10,-4 -10,-9l0 -62c0,-6 4,-10 10,-10 5,0 9,4 9,10l0 62c-1,5 -5,9 -9,9z" id="id_106"></path>
<path class="fil1" d="M534 506c-32,0 -68,-27 -76,-86 0,-5 3,-9 8,-10 5,-1 9,3 10,7 6,49 33,70 58,70 24,0 51,-21 57,-70 0,-5 5,-8 10,-7 5,0 8,5 8,10 -7,59 -43,86 -75,86z" id="id_107"></path>
<path class="fil1" d="M468 428c0,0 -1,0 -1,0 -7,-1 -18,-6 -24,-27 -2,-6 -3,-13 -4,-21 23,-19 37,-48 37,-80 0,-2 0,-4 0,-6 17,-9 38,-15 58,-17 17,-2 27,4 36,10 4,2 7,5 11,6 4,1 7,2 10,3 14,4 32,10 35,31 2,16 8,71 -9,91 -4,5 -10,8 -16,9 -3,0 -5,-1 -7,-2 -2,-2 -3,-4 -3,-7 0,0 -2,-25 -11,-40 -9,-13 -53,-18 -75,-14 -17,3 -28,8 -29,54 0,3 -1,5 -3,7 -1,2 -3,3 -5,3z" id="id_108"></path>
<path class="fil1" d="M373 642l-13 0 0 -40c0,-4 -4,-8 -8,-8 -4,0 -7,4 -7,8l0 40 -120 0 0 -40c0,-4 -3,-8 -7,-8 -4,0 -7,4 -7,8l0 40 -35 0c-4,0 -7,-4 -7,-8l0 -30c0,-42 34,-76 77,-76 1,0 2,0 3,1 -3,-2 -6,-1 -8,1 -3,3 -3,7 0,10l40 43c2,1 3,2 6,2 1,0 3,-1 4,-2l41 -43c3,-3 3,-7 0,-10 -1,-1 -2,-1 -3,-2 20,2 38,10 51,24 -6,13 -9,27 -9,42l0 38c0,4 1,7 2,10zm-52 -111c0,-1 1,-1 1,-1l0 0 -1 1z" id="id_109"></path>
<path class="fil1" d="M327 563c-4,0 -7,-4 -7,-8l0 -54c0,-4 3,-8 7,-8 4,0 7,4 7,8l0 55c0,3 -3,7 -7,7z" id="id_110"></path>
<path class="fil1" d="M246 561c-4,0 -7,-3 -7,-7l0 -49c0,-4 3,-7 7,-7 4,0 7,3 7,7l0 49c0,4 -3,7 -7,7z" id="id_111"></path>
<path class="fil1" d="M285 535c-25,0 -53,-21 -59,-67 0,-4 3,-7 6,-8 4,0 8,2 8,6 5,38 26,55 45,55 19,0 40,-17 45,-55 1,-4 4,-6 8,-6 4,0 7,4 6,8 -5,46 -33,67 -59,67z" id="id_112"></path>
<path class="fil1" d="M234 474c0,0 -1,0 -1,0 -5,0 -14,-4 -18,-21 -7,-21 -7,-60 11,-75 12,-10 34,-18 56,-22 17,27 45,45 77,49 1,17 3,48 -8,61 -4,4 -8,7 -13,7 -2,0 -4,0 -5,-1 -2,-2 -3,-3 -3,-5 0,0 -1,-20 -8,-32 -7,-10 -42,-14 -59,-11 -13,2 -22,6 -23,43 0,2 0,3 -2,5 -1,1 -2,2 -4,2z" id="id_113"></path>
</g>
</g>
</svg>