<svg xmlns="http://www.w3.org/2000/svg" xml:space="preserve" width="11.8056in" height="11.8056in" version="1.1" style="shape-rendering:geometricPrecision; text-rendering:geometricPrecision; image-rendering:optimizeQuality; fill-rule:evenodd; clip-rule:evenodd" viewBox="0 0 11806 11806" xmlns:xlink="http://www.w3.org/1999/xlink">
<defs>
<style type="text/css">
   
    .fil0 {fill:#FFBE00}
    .fil1 {fill:white}
   
  </style>
</defs>
<g id="Layer_x0020_1">
<metadata id="CorelCorpID_0Corel-Layer"></metadata>
<circle class="fil0" cx="5903" cy="5903" r="5903" id="id_101" style="fill: rgb(66, 173, 194);"></circle>
<path class="fil1" d="M9085 8301l-6365 0c-208,0 -376,-168 -376,-370l0 -4050c0,-209 168,-377 376,-377l6365 0c208,0 376,168 376,377l0 4044c0,208 -168,376 -376,376zm-4831 -1753c-671,0 -1215,-544 -1215,-1215 0,-671 544,-1215 1215,-1215 671,0 1215,544 1215,1215 6,665 -544,1215 -1215,1215zm4403 -1904l-2436 0c-58,0 -104,-46 -104,-104 0,-58 46,-104 104,-104l2436 0c58,0 104,46 104,104 0,58 -46,104 -104,104zm0 787l-2436 0c-58,0 -104,-46 -104,-104 0,-58 46,-104 104,-104l2436 0c58,0 104,46 104,104 0,58 -46,104 -104,104zm0 787l-2436 0c-58,0 -104,-46 -104,-104 0,-58 46,-104 104,-104l2436 0c58,0 104,46 104,104 0,58 -46,104 -104,104zm0 1522l-5520 0c-58,0 -104,-46 -104,-104l0 -428c0,-58 46,-105 104,-105l5520 0c58,0 104,47 104,105l0 428c0,58 -46,104 -104,104zm-5416 -203l5318 0 0 -225 -5318 0 0 225zm1748 -1515c-164,-235 -442,-382 -735,-382 -293,0 -566,146 -734,382 185,195 446,318 734,318 288,0 550,-122 735,-318zm-1598 -167c207,-261 526,-418 863,-418 341,0 661,157 864,417 94,-153 148,-333 148,-527 6,-555 -451,-1013 -1012,-1013 -562,0 -1013,458 -1013,1013 0,193 55,374 150,528zm863 -528c-261,0 -469,-208 -469,-469 0,-260 208,-468 469,-468 260,0 468,208 468,468 0,261 -208,469 -468,469zm0 -729c-151,0 -266,116 -266,266 0,145 121,266 266,266 144,0 266,-121 266,-266 0,-150 -116,-266 -266,-266z" id="id_102"></path>
</g>
</svg>