<svg xmlns="http://www.w3.org/2000/svg" xml:space="preserve" width="850px" height="850px" version="1.1" style="shape-rendering:geometricPrecision; text-rendering:geometricPrecision; image-rendering:optimizeQuality; fill-rule:evenodd; clip-rule:evenodd" viewBox="0 0 850 850" xmlns:xlink="http://www.w3.org/1999/xlink">
<defs>
<style type="text/css">
   
    .fil0 {fill:#663399}
    .fil1 {fill:white}
   
  </style>
</defs>
<g id="Layer_x0020_1">
<metadata id="CorelCorpID_0Corel-Layer"></metadata>
<circle class="fil0" cx="425" cy="425" r="425" id="id_101" style="fill: rgb(232, 186, 46);"></circle>
<g id="_493687664">
<polygon class="fil1" points="681,464 681,464 " id="id_102"></polygon>
<path class="fil1" d="M639 649l-410 0c-3,0 -7,-3 -7,-7l0 -117c3,0 5,0 7,0 41,0 74,-33 74,-73 0,-3 -1,-5 -1,-7l337 0c4,0 7,3 7,7l0 190c0,4 -3,7 -7,7zm-319 -60c0,0 0,0 0,0 -3,0 -5,-2 -6,-4l-31 -70c-1,-3 0,-7 4,-9 3,-1 7,0 9,4l24 56 25 -56c1,-4 5,-5 8,-4 4,2 5,6 4,9l-31 70c-1,2 -3,4 -6,4zm83 0c-22,0 -41,-19 -41,-42 0,-23 19,-41 41,-41 23,0 42,18 42,41 0,23 -18,42 -42,42zm0 -70c-15,0 -27,13 -27,28 0,15 12,28 27,28 16,0 28,-13 28,-28 0,-15 -12,-28 -28,-28zm74 70c-4,0 -7,-3 -7,-7l0 -63 -26 0c-4,0 -7,-3 -7,-7 0,-4 3,-7 7,-7l33 0 33 0c4,0 7,3 7,7 0,4 -3,7 -7,7l-26 0 0 63c0,4 -3,7 -7,7zm102 -35l-43 0 0 21 43 0c4,0 7,3 7,7 0,4 -4,7 -7,7l-50 0c-4,0 -7,-3 -7,-7l0 -35 0 -35c0,-4 3,-7 7,-7l50 0c3,0 7,3 7,7 0,4 -4,7 -7,7l-43 0 0 21 43 0c3,0 7,3 7,7 0,4 -4,7 -7,7z" id="id_103"></path>
<path class="fil1" d="M300 432c-7,-22 -23,-40 -44,-48l40 -77c1,-3 3,-4 6,-4l52 0 -28 58 -7 0c-11,0 -20,9 -20,20 0,11 9,20 20,20l154 0 0 0 76 0c11,0 20,-9 20,-20 0,-11 -9,-20 -20,-20l-44 0 28 -58 34 0c3,0 5,1 6,4l64 125 -337 0z" id="id_104"></path>
<path class="fil1" d="M229 512c-33,0 -60,-27 -60,-60 0,-33 27,-60 60,-60 33,0 61,27 61,60 0,33 -27,60 -61,60zm24 -53l-17 0 0 17c0,3 -3,7 -7,7 -3,0 -7,-4 -7,-7l0 -17 -17 0c-3,0 -7,-4 -7,-7 0,-4 4,-7 7,-7l17 0 0 -17c0,-4 4,-7 7,-7 4,0 7,3 7,7l0 17 17 0c4,0 7,3 7,7 0,3 -3,7 -7,7z" id="id_105"></path>
<path class="fil1" d="M549 388l-230 0c-4,0 -7,-3 -7,-7 0,-4 3,-7 7,-7l230 0c4,0 7,3 7,7 0,4 -3,7 -7,7z" id="id_106"></path>
<path class="fil1" d="M473 388c-1,0 -2,-1 -3,-1l-135 0c-3,-2 -4,-6 -3,-9l82 -169c4,-7 12,-10 19,-7l96 47c4,2 6,5 8,8 1,4 1,8 -1,11l-57 116c-1,2 -3,4 -6,4z" id="id_107"></path>
</g>
</g>
</svg>